<svg width="14" height="14" viewBox="0 0 14 14" fill="none" xmlns="http://www.w3.org/2000/svg">
<g clip-path="url(#clip0_4_631)">
<path d="M6.99785 1.31723C5.61345 1.31586 4.27381 1.80755 3.21901 2.70419C2.16421 3.60083 1.46321 4.84381 1.24162 6.21036C1.02004 7.57691 1.29236 8.97771 2.00978 10.1617C2.72721 11.3457 3.84284 12.2355 5.15674 12.6717C5.44729 12.7228 5.54007 12.5517 5.54007 12.3978C5.54007 12.2589 5.54285 11.8728 5.54007 11.3845C3.9184 11.7361 3.5834 10.6172 3.5834 10.6172C3.47662 10.2652 3.24745 9.96289 2.93729 9.76501C2.4084 9.4039 2.97674 9.41057 2.97674 9.41057C3.16144 9.4359 3.33791 9.50313 3.49265 9.60713C3.64738 9.71112 3.77629 9.84912 3.86952 10.0106C3.94841 10.1542 4.05499 10.2807 4.18309 10.3829C4.31118 10.4851 4.45827 10.5609 4.61583 10.6059C4.77339 10.6509 4.9383 10.6642 5.10104 10.6451C5.26379 10.6259 5.42112 10.5748 5.56396 10.4945C5.59174 10.2 5.72229 9.92501 5.93396 9.71835C4.64063 9.57057 3.28063 9.07112 3.28063 6.83835C3.27219 6.25931 3.48705 5.69926 3.88063 5.27446C3.70255 4.77224 3.72302 4.22097 3.93785 3.73335C3.93785 3.73335 4.42785 3.57668 5.53952 4.33112C6.49446 4.06909 7.50235 4.06909 8.45729 4.33112C9.57229 3.57723 10.0578 3.73335 10.0578 3.73335C10.2728 4.22112 10.2934 4.77223 10.1156 5.27446C10.5094 5.69933 10.7241 6.2597 10.7151 6.8389C10.7151 9.07779 9.35285 9.57001 8.05451 9.71335C8.19394 9.85341 8.30169 10.0217 8.3705 10.207C8.43931 10.3923 8.46758 10.5901 8.4534 10.7872V12.4006C8.4534 12.5561 8.54785 12.7283 8.8434 12.6717C10.157 12.2348 11.2721 11.3444 11.9889 10.1601C12.7057 8.97585 12.9774 7.57502 12.7553 6.20863C12.5332 4.84224 11.8318 3.59957 10.7768 2.70328C9.72184 1.80698 8.38217 1.31562 6.99785 1.31723Z" stroke="#F3F4F3" stroke-linecap="round" stroke-linejoin="round"/>
</g>
<defs>
<clipPath id="clip0_4_631">
<rect width="13.3333" height="13.3333" fill="white" transform="translate(0.333374 0.333344)"/>
</clipPath>
</defs>
</svg>
