<svg width="17" height="17" viewBox="0 0 17 17" fill="none" xmlns="http://www.w3.org/2000/svg">
<path d="M1.75 2.93518C1.75 3.27898 1.88657 3.6087 2.12968 3.8518C2.37278 4.0949 2.7025 4.23148 3.0463 4.23148C3.3901 4.23148 3.71981 4.0949 3.96292 3.8518C4.20602 3.6087 4.34259 3.27898 4.34259 2.93518C4.34259 2.59138 4.20602 2.26166 3.96292 2.01856C3.71981 1.77546 3.3901 1.63889 3.0463 1.63889C2.7025 1.63889 2.37278 1.77546 2.12968 2.01856C1.88657 2.26166 1.75 2.59138 1.75 2.93518Z" stroke="#F3F4F3" stroke-linejoin="round"/>
<path d="M1.75 15.25V6.1759H4.34259V15.25H1.75Z" stroke="#F3F4F3" stroke-linejoin="round"/>
<path d="M5.96301 6.1759V15.25H8.55561V10.7726C8.55561 10.0648 9.20375 8.7685 11.0801 8.7685C12.1451 8.7685 12.7686 9.31618 12.7686 10.3889V15.25H15.3612V10.3889C15.3612 9.54044 15.1589 8.48525 14.4576 7.61674C13.7162 6.69831 12.5696 6.1759 11.0808 6.1759C10.1001 6.1759 9.24329 6.57451 8.55561 7.06127V6.1759H5.96301Z" stroke="#F3F4F3" stroke-linejoin="round"/>
</svg>
