<svg width="14" height="14" viewBox="0 0 14 14" fill="none" xmlns="http://www.w3.org/2000/svg">
<g clip-path="url(#clip0_4_620)">
<path d="M8.68897 12.7722L8.69564 12.7761C9.28571 13.1518 9.98626 13.315 10.6816 13.2387C11.3769 13.1625 12.0255 12.8513 12.5201 12.3567L12.9501 11.9267C13.1421 11.7344 13.25 11.4737 13.25 11.202C13.25 10.9302 13.1421 10.6695 12.9501 10.4772L11.1384 8.66668C10.9461 8.47463 10.6855 8.36676 10.4137 8.36676C10.1419 8.36676 9.88127 8.47463 9.68897 8.66668C9.59388 8.76189 9.48095 8.83742 9.35665 8.88896C9.23234 8.94049 9.0991 8.96702 8.96453 8.96702C8.82997 8.96702 8.69672 8.94049 8.57241 8.88896C8.44811 8.83742 8.33518 8.76189 8.24009 8.66668L5.3412 5.76724C5.14915 5.57494 5.04127 5.31429 5.04127 5.04251C5.04127 4.77074 5.14915 4.51008 5.3412 4.31779C5.43641 4.2227 5.51194 4.10977 5.56347 3.98546C5.61501 3.86116 5.64153 3.72791 5.64153 3.59335C5.64153 3.45878 5.61501 3.32554 5.56347 3.20123C5.51194 3.07692 5.43641 2.964 5.3412 2.8689L3.53009 1.05557C3.33779 0.863518 3.07714 0.755646 2.80536 0.755646C2.53359 0.755646 2.27293 0.863518 2.08064 1.05557L1.65064 1.48557C1.1561 1.98022 0.844982 2.6287 0.768626 3.32399C0.692269 4.01928 0.855239 4.71982 1.23064 5.31001L1.23509 5.31668C3.22032 8.25547 5.75063 10.7863 8.68897 12.7722Z" stroke="#F3F4F3" stroke-width="1.5" stroke-linecap="round" stroke-linejoin="round"/>
</g>
<defs>
<clipPath id="clip0_4_620">
<rect width="13.3333" height="13.3333" fill="white" transform="translate(0.333374 0.333344)"/>
</clipPath>
</defs>
</svg>
