<svg width="18" height="18" viewBox="0 0 18 18" fill="none" xmlns="http://www.w3.org/2000/svg">
<g clip-path="url(#clip0_4_596)">
<path d="M9.74028 16.8083H1.84306C1.65262 16.8083 1.46998 16.7327 1.33531 16.598C1.20065 16.4634 1.125 16.2807 1.125 16.0903V1.73194C1.125 1.5415 1.20065 1.35886 1.33531 1.2242C1.46998 1.08954 1.65262 1.01389 1.84306 1.01389H13.6889C13.8793 1.01389 14.062 1.08954 14.1966 1.2242C14.3313 1.35886 14.4069 1.5415 14.4069 1.73194V7.47222" stroke="#F3F4F3" stroke-linecap="round" stroke-linejoin="round"/>
<path d="M3.06396 10.4312H6.86813" stroke="#F3F4F3" stroke-linecap="round" stroke-linejoin="round"/>
<path d="M3.06396 13.3062H6.86813" stroke="#F3F4F3" stroke-linecap="round" stroke-linejoin="round"/>
<path d="M9.96814 6.84512H12.5674" stroke="#F3F4F3" stroke-linecap="round" stroke-linejoin="round"/>
<path d="M9.20007 12.341C9.20007 12.768 9.28419 13.1909 9.44762 13.5855C9.61106 13.98 9.8506 14.3385 10.1526 14.6405C10.4546 14.9425 10.8131 15.1821 11.2076 15.3455C11.6022 15.5089 12.0251 15.593 12.4522 15.593C12.8792 15.593 13.3021 15.5089 13.6967 15.3455C14.0912 15.1821 14.4497 14.9425 14.7517 14.6405C15.0537 14.3385 15.2933 13.98 15.4567 13.5855C15.6201 13.1909 15.7042 12.768 15.7042 12.341C15.7042 11.9139 15.6201 11.491 15.4567 11.0964C15.2933 10.7019 15.0537 10.3434 14.7517 10.0414C14.4497 9.7394 14.0912 9.49985 13.6967 9.33642C13.3021 9.17298 12.8792 9.08887 12.4522 9.08887C12.0251 9.08887 11.6022 9.17298 11.2076 9.33642C10.8131 9.49985 10.4546 9.7394 10.1526 10.0414C9.8506 10.3434 9.61106 10.7019 9.44762 11.0964C9.28419 11.491 9.20007 11.9139 9.20007 12.341Z" stroke="#F3F4F3" stroke-linecap="round" stroke-linejoin="round"/>
<path d="M17.0972 16.9861L14.766 14.6548" stroke="#F3F4F3" stroke-linecap="round" stroke-linejoin="round"/>
<path d="M4.11255 4.0625C4.11255 4.38721 4.24154 4.69861 4.47114 4.92822C4.70074 5.15782 5.01215 5.28681 5.33685 5.28681C5.66156 5.28681 5.97297 5.15782 6.20257 4.92822C6.43217 4.69861 6.56116 4.38721 6.56116 4.0625C6.56116 3.7378 6.43217 3.42639 6.20257 3.19679C5.97297 2.96718 5.66156 2.8382 5.33685 2.8382C5.01215 2.8382 4.70074 2.96718 4.47114 3.19679C4.24154 3.42639 4.11255 3.7378 4.11255 4.0625Z" stroke="#F3F4F3" stroke-linecap="round" stroke-linejoin="round"/>
<path d="M7.33757 7.7354C7.2243 7.29074 6.96613 6.89648 6.60383 6.6149C6.24152 6.33331 5.79574 6.18045 5.33688 6.18045C4.87802 6.18045 4.43223 6.33331 4.06993 6.6149C3.70762 6.89648 3.44945 7.29074 3.33618 7.7354" stroke="#F3F4F3" stroke-linecap="round" stroke-linejoin="round"/>
<path d="M9.96814 4.09653H11.4286" stroke="#F3F4F3" stroke-linecap="round" stroke-linejoin="round"/>
</g>
<defs>
<clipPath id="clip0_4_596">
<rect width="16.6667" height="16.6667" fill="white" transform="translate(0.777832 0.666656)"/>
</clipPath>
</defs>
</svg>
