<svg width="1728" height="534" viewBox="0 0 1728 534" fill="none" xmlns="http://www.w3.org/2000/svg">
<g id="-z10">
<g id="L">
<path id="side" d="M769.5 86L800.5 81.5L817.5 86H839L855.5 93.5L832 110L800.5 114.5L780.5 130L734.5 146.5L674 183L613.5 201.5L582.5 223L547 234.5L531 254L472.5 277.5L404.5 316L344 382.5L301 369L414.5 226L769.5 86Z" fill="#9B9B9B"/>
<path id="top" d="M-20 220L56 216.5L151 187L225.5 151.5L323 116.5L607.5 79L684 81L748 70L782 79L804.5 90.5L782 106.5L757.5 112.5L736 126L714 129.5L697.5 148L670.5 157.5L621.5 173L605 191L560.5 202.5L525 239.5L483.5 258.5L475 272.5L404 307L344 385.5L319 549.5L-38 554L-20 220Z" fill="#D9D9D9"/>
</g>
<g id="R">
<path id="side_2" d="M1191 249L1729 0V101L1663 122.5L1606.5 131.5L1522 147.5L1471 166L1427.5 176.5L1396.5 194.5L1375.5 199.5L1349 211.5L1334.5 224L1311 235L1294.5 243L1271.5 249L1254.5 257L1225.5 262L1191 249Z" fill="#A5A5A5"/>
<path id="top_2" d="M865.5 211L888.5 171.5L936 137L1141 99.5L1545 7.5H1729V70L1705.5 72.5L1667 87.5L1628 106.5L1588.5 112L1570 128H1547.5L1502 139L1470 144.5L1417.5 171.5L1351 194L1292 233.5L1223.5 263.5L1187.5 272.5L1151 259L1100.5 263.5L1046 254H936L884 236.5L865.5 211Z" fill="#D9D9D9"/>
</g>
</g>
</svg>
