<svg width="1376" height="405" viewBox="0 0 1376 405" fill="none" xmlns="http://www.w3.org/2000/svg">
<g id="-z15">
<path id="L" d="M0 0L39 13.5L61 40H99.5L119.5 54.5L141.5 60.5L151.5 76.5L165 83H200L228.5 92.5H264L281 114.5L303.5 133L337 139L364 176.5L439 173L538.5 179L716.5 195.5L747 205L753 216.5L734 235.5L694.5 248.5L625 266L554.5 276L493 285.5L434.5 288L364 302L296 309.5L188 341L145.5 372L91 391L39.5 405L0 401V0Z" fill="#BBBBBB"/>
<path id="R" d="M746 137.5L724 133L735 125H748L760.5 112L799.5 109L845 104.5L889 93L970 78L1054 74.5L1189 86.5L1221.5 104.5H1272L1287 121.5L1313 133L1332 148.5L1362 161.5L1375.5 187L1346.5 211.5L1306.5 220.5L1267.5 241.5L1225 251L1189 277.5L1138.5 291.5L1100 311.5L1066 308L1045.5 299.5L1049.5 273.5L1036.5 267L1045.5 247L1038.5 231L1035 216L1021.5 201L1000.5 190L984 182L971.5 168L950.5 166.5L932 158H920.5L910 153.5L885 152L854.5 146.5L807 148.5L781 140.5L746 137.5Z" fill="#BBBBBB"/>
</g>
</svg>
