<svg width="1515" height="220" viewBox="0 0 1515 220" fill="none" xmlns="http://www.w3.org/2000/svg">
<g id="-z20">
<g id="L">
<path id="side" d="M338 126L372 92L557 57L662 51L675 75L636.5 78.5L600 92H557L542.5 104.5L507.5 101.5L493 113.5L462.5 108L433 117L398.5 113.5L369 126L372 157L364 175L350 168.5L338 126Z" fill="#555555"/>
<path id="top" d="M32 142.5L0.5 105.5L82.5 87.5L132.5 101L181 93.5L225.5 83.5L277.5 57.5L322 34.5L381.5 28L429.5 13L468 19L502.5 13H554.5L580 25H611L629 41.5L666.5 49.5L662.5 62.5L614.5 69.5L568 62.5L550 79.5L496 90.5L381.5 93.5L348 135.5L366.5 166L348 187L283.5 208.5H239.5L204.5 201L135 220L59.5 212.5L35.5 187L32 142.5Z" fill="#919191"/>
</g>
<path id="R" d="M818 41.5L855.5 38.5L888 49L931.5 45L982 35.5L1005 41.5L1026 62.5L1049.5 49L1082 52L1114 38.5L1127.5 56.5H1151.5L1198.5 64L1216 77H1242.5L1307 85L1326 72.5L1341.5 68L1360.5 41.5L1395.5 35L1428.5 13L1483 0.5L1515 5V204.5H1462H1426L1388.5 201L1341.5 187.5L1322.5 180L1295.5 183L1273 180L1246 183L1204 196.5L1161 204.5H1137L1114 201L1098 198.5L1082 189L1072.5 180L1069 166.5L1054 156H1024L1002 142L982 133.5L959.5 135.5L935.5 126.5L903 128.5L874.5 116L855.5 94L840 89L824 79.5L810 67.5H785.5L771.5 62.5L792 49L803 38.5L818 41.5Z" fill="#919191"/>
</g>
</svg>
