<svg width="1727" height="205" viewBox="0 0 1727 205" fill="none" xmlns="http://www.w3.org/2000/svg">
<g id="-z25">
<path id="R" d="M1402 100L1450 89.5L1474.5 81L1511 89.5L1563 76.5L1616.5 82L1659.5 55.5L1671.5 38L1703.5 23H1727V186.5L1431 179.5L1368 163L1288 151L1245.5 163H1210.5L1196 169L1167 173L1135.5 169L1093.5 179.5H1048.5L1026 173L1034 159L1062 152.5L1074 143.5L1062 140.5H1045L1026 132.5L1017.5 138.5L995.5 129.5L971 127.5L959 120.5L942 122L936.5 115.5L941 100L971 95.5L984.5 85L1012.5 81L1030.5 74.5L1048.5 76.5L1068.5 70L1074 89.5L1093.5 100H1119.5L1135.5 89.5L1159.5 100L1173.5 107.5H1196H1222L1257.5 115.5L1284.5 128H1340L1385 115.5L1402 100Z" fill="#BBBBBB"/>
<path id="L" d="M0 46.5L36 53.5L72 62H102L135 46.5L171 53.5L216.5 46.5L255.5 13L271.5 0H292L302 13L339 24.5L368.5 53.5L389 74.7493L413.5 86.2493H441.5L477.5 74.7493L513.175 86.2493L525.5 104L551 110H589.5L608.5 130L619.5 158L667.5 150.5H768L828.5 153L842.5 161.5V172L807.5 167L768 175H745.5L726.5 184L682.5 190.5L643.5 204.5H608.5H544L491 190.5L428.5 179.5L312 167L245 156.5L171 167L147 156.5L126.5 135.5L122 110L98 96.5L29.5 110L0 114.5V46.5Z" fill="#BBBBBB"/>
</g>
</svg>
