<svg width="1728" height="531" viewBox="0 0 1728 531" fill="none" xmlns="http://www.w3.org/2000/svg">
<g id="-z30">
<path id="L" d="M3 0L124.5 67.5L182.5 113.5H294L366 139L424.5 117L481.5 131.5L534 117L564 131.5L588 170L549 208L472 227L-4.5 531L3 0Z" fill="#D9D9D9"/>
<path id="R" d="M1234 103.5L1245 119L1259.5 127L1273.5 111L1318.5 99.5L1325.5 83L1337.5 74.5L1348 83L1365 85L1373 74.5L1385 83L1406.5 80.5L1415 58.5L1423 66H1432.5L1449 48.5L1458 35L1472 39.5L1478.5 35L1494.5 41.5L1511 66L1514.5 87L1523 91L1517.5 125.5L1523 148H1728V254.5H1313L1067 220L1019 209.5L984.5 202.5L952.5 187.5H920.5L915 169L952.5 158L960.5 148H1013.5L1067 165L1118 148L1161.5 141L1196.5 115.5L1215 106L1234 103.5Z" fill="#D9D9D9"/>
</g>
</svg>
