<svg width="1728" height="205" viewBox="0 0 1728 205" fill="none" xmlns="http://www.w3.org/2000/svg">
<g id="-z35">
<path id="L" d="M0 47L36 54L72 62.5H102L135 47L171 54L216.5 47L255.5 13.5L271.5 0.5H292L302 13.5L339 25L368.5 54L389 75.2493L413.5 86.7493H441.5L477.5 75.2493L513.175 86.7493L525.5 104.5L551 110.5H589.5L608.5 130.5L619.5 158.5L667.5 151H768L828.5 153.5L842.5 162V172.5L807.5 167.5L768 175.5H745.5L726.5 184.5L682.5 191L643.5 205H608.5H544L491 191L428.5 180L312 167.5L245 157L171 167.5L147 157L126.5 136L122 110.5L98 97L29.5 110.5L0 115V47Z" fill="#858585"/>
<path id="R" d="M1597.5 86L1637.5 70.5L1675.5 35.5L1728 16.5V183.5L1397.5 177.5L1334 171.5L1295.5 146L1241 163L1190 171.5L1140 166.5L1090.5 181L1047 177.5L1022 166.5L1071.5 146L1025 129.5L1022 141L979.5 125.5H942.5L934 112.5L949.5 98H971L988 84.5H1011L1032 73.5L1065.5 70.5L1079.5 94L1098.5 98H1120.5L1135.5 89.5L1161.5 107H1187L1204.5 103.5H1220.5L1251.5 112.5L1290.5 129.5L1401 98L1470 77.5L1522 86L1561.5 77.5L1597.5 86Z" fill="#858585"/>
</g>
</svg>
