<svg width="1728" height="522" viewBox="0 0 1728 522" fill="none" xmlns="http://www.w3.org/2000/svg">
<g id="-z40">
<path id="L" d="M-0.5 42.5L55 25.5L111 53.5H197.5L234 97.5L277 118.5L335 110.5L391.5 81.5L428 97.5L516 81.5L539.5 110.5L598 97.5L655.5 147.5L691 131.5L727 147.5L765.5 137.5L798 147.5H832L838 178.5L888.5 186.5L869.5 204.5L786.5 215.5L691 204.5L666 252L550.5 215.5L438.5 238L380 287.5L335 400.5V521.5L-0.5 510.5V42.5Z" fill="#CCCCCC"/>
<path id="R" d="M1493 72.5L1528 58L1576 62.5L1603.5 41L1615.5 60L1667 53.5L1703 2L1728 0V285.5H1493L1254 198.5L1117 188H984L952 177L965.5 146L996 135.5L1056 109L1106 117.5L1148 109L1183.5 117.5L1264 96.5L1369 109L1432 72.5H1493Z" fill="#CCCCCC"/>
</g>
</svg>
