<svg width="1728" height="409" viewBox="0 0 1728 409" fill="none" xmlns="http://www.w3.org/2000/svg">
<g id="-z45">
<path id="L" d="M0 95.5L28 92.5L51 71.5L74 65.5L96.5 75.5H116.5L133 86.5L149 107.5L192 103L221.5 112L237.5 107.5L262 123L284.5 128.5H308L326.5 140L351.5 134L393 154L448 149L474 160H511L534.5 170.5L565 207.5H600L617.5 213.5L641 202L668 207.5L685 202L704 226.5L737 240L739.5 259L714.5 276L565 290.5L0 314V95.5Z" fill="#D0D0D0"/>
<path id="R" d="M1269 162L1291 141L1323.5 143L1360 119L1414.5 115L1480 82.5L1492 100.5H1510.5L1532 90.5L1569 102.5L1579 69L1589.5 64L1610 69L1647 46L1661 27L1679.5 16L1689 5.5L1705 0.5L1719.5 13L1728 39.5V409L1466 394.5L1300.5 293.5L1075.5 279.5L885 271V259L878.5 252L885 242L892.5 227L902 216.5L938.5 213L946 207.5L960.5 209L966.5 197L984 193L1003.5 197H1020.5L1030.5 182L1046.5 176.5L1060 186.5L1073 184.5L1101 160.5H1114L1131.5 172.5L1146 179.5L1160 176.5L1175 182.5L1205 147L1233 153.5L1245 147L1259 153.5L1269 162Z" fill="#D0D0D0"/>
</g>
</svg>
