<svg width="1728" height="1265" viewBox="0 0 1728 1265" fill="none" xmlns="http://www.w3.org/2000/svg">
<rect width="1728" height="1265" fill="#1E1E1E"/>
<g id="MacBook Pro 16&#34; - 1" clip-path="url(#clip0_0_1)">
<rect width="1728" height="1265" fill="white"/>
<g id="-z45">
<path id="L" d="M0 380.5L28 377.5L51 356.5L74 350.5L96.5 360.5H116.5L133 371.5L149 392.5L192 388L221.5 397L237.5 392.5L262 408L284.5 413.5H308L326.5 425L351.5 419L393 439L448 434L474 445H511L534.5 455.5L565 492.5H600L617.5 498.5L641 487L668 492.5L685 487L704 511.5L737 525L739.5 544L714.5 561L565 575.5L0 599V380.5Z" fill="#D0D0D0"/>
<path id="R" d="M1269 447L1291 426L1323.5 428L1360 404L1414.5 400L1480 367.5L1492 385.5H1510.5L1532 375.5L1569 387.5L1579 354L1589.5 349L1610 354L1647 331L1661 312L1679.5 301L1689 290.5L1705 285.5L1719.5 298L1728 324.5V694L1466 679.5L1300.5 578.5L1075.5 564.5L885 556V544L878.5 537L885 527L892.5 512L902 501.5L938.5 498L946 492.5L960.5 494L966.5 482L984 478L1003.5 482H1020.5L1030.5 467L1046.5 461.5L1060 471.5L1073 469.5L1101 445.5H1114L1131.5 457.5L1146 464.5L1160 461.5L1175 467.5L1205 432L1233 438.5L1245 432L1259 438.5L1269 447Z" fill="#D0D0D0"/>
</g>
<g id="-z40">
<path id="L_2" d="M-0.5 421.5L55 404.5L111 432.5H197.5L234 476.5L277 497.5L335 489.5L391.5 460.5L428 476.5L516 460.5L539.5 489.5L598 476.5L655.5 526.5L691 510.5L727 526.5L765.5 516.5L798 526.5H832L838 557.5L888.5 565.5L869.5 583.5L786.5 594.5L691 583.5L666 631L550.5 594.5L438.5 617L380 666.5L335 779.5V900.5L-0.5 889.5V421.5Z" fill="#CCCCCC"/>
<path id="R_2" d="M1493 451.5L1528 437L1576 441.5L1603.5 420L1615.5 439L1667 432.5L1703 381L1728 379V664.5H1493L1254 577.5L1117 567H984L952 556L965.5 525L996 514.5L1056 488L1106 496.5L1148 488L1183.5 496.5L1264 475.5L1369 488L1432 451.5H1493Z" fill="#CCCCCC"/>
</g>
<g id="-z35">
<path id="L_3" d="M0 477L36 484L72 492.5H102L135 477L171 484L216.5 477L255.5 443.5L271.5 430.5H292L302 443.5L339 455L368.5 484L389 505.249L413.5 516.749H441.5L477.5 505.249L513.175 516.749L525.5 534.5L551 540.5H589.5L608.5 560.5L619.5 588.5L667.5 581H768L828.5 583.5L842.5 592V602.5L807.5 597.5L768 605.5H745.5L726.5 614.5L682.5 621L643.5 635H608.5H544L491 621L428.5 610L312 597.5L245 587L171 597.5L147 587L126.5 566L122 540.5L98 527L29.5 540.5L0 545V477Z" fill="#858585"/>
<path id="R_3" d="M1597.5 516L1637.5 500.5L1675.5 465.5L1728 446.5V613.5L1397.5 607.5L1334 601.5L1295.5 576L1241 593L1190 601.5L1140 596.5L1090.5 611L1047 607.5L1022 596.5L1071.5 576L1025 559.5L1022 571L979.5 555.5H942.5L934 542.5L949.5 528H971L988 514.5H1011L1032 503.5L1065.5 500.5L1079.5 524L1098.5 528H1120.5L1135.5 519.5L1161.5 537H1187L1204.5 533.5H1220.5L1251.5 542.5L1290.5 559.5L1401 528L1470 507.5L1522 516L1561.5 507.5L1597.5 516Z" fill="#858585"/>
</g>
<g id="-z30">
<path id="L_4" d="M3 428L124.5 495.5L182.5 541.5H294L366 567L424.5 545L481.5 559.5L534 545L564 559.5L588 598L549 636L472 655L-4.5 959L3 428Z" fill="#D9D9D9"/>
<path id="R_4" d="M1234 531.5L1245 547L1259.5 555L1273.5 539L1318.5 527.5L1325.5 511L1337.5 502.5L1348 511L1365 513L1373 502.5L1385 511L1406.5 508.5L1415 486.5L1423 494H1432.5L1449 476.5L1458 463L1472 467.5L1478.5 463L1494.5 469.5L1511 494L1514.5 515L1523 519L1517.5 553.5L1523 576H1728V682.5H1313L1067 648L1019 637.5L984.5 630.5L952.5 615.5H920.5L915 597L952.5 586L960.5 576H1013.5L1067 593L1118 576L1161.5 569L1196.5 543.5L1215 534L1234 531.5Z" fill="#D9D9D9"/>
</g>
<g id="-z25">
<path id="R_5" d="M1402 530L1450 519.5L1474.5 511L1511 519.5L1563 506.5L1616.5 512L1659.5 485.5L1671.5 468L1703.5 453H1727V616.5L1431 609.5L1368 593L1288 581L1245.5 593H1210.5L1196 599L1167 603L1135.5 599L1093.5 609.5H1048.5L1026 603L1034 589L1062 582.5L1074 573.5L1062 570.5H1045L1026 562.5L1017.5 568.5L995.5 559.5L971 557.5L959 550.5L942 552L936.5 545.5L941 530L971 525.5L984.5 515L1012.5 511L1030.5 504.5L1048.5 506.5L1068.5 500L1074 519.5L1093.5 530H1119.5L1135.5 519.5L1159.5 530L1173.5 537.5H1196H1222L1257.5 545.5L1284.5 558H1340L1385 545.5L1402 530Z" fill="#BBBBBB"/>
<path id="L_5" d="M0 476.5L36 483.5L72 492H102L135 476.5L171 483.5L216.5 476.5L255.5 443L271.5 430H292L302 443L339 454.5L368.5 483.5L389 504.749L413.5 516.249H441.5L477.5 504.749L513.175 516.249L525.5 534L551 540H589.5L608.5 560L619.5 588L667.5 580.5H768L828.5 583L842.5 591.5V602L807.5 597L768 605H745.5L726.5 614L682.5 620.5L643.5 634.5H608.5H544L491 620.5L428.5 609.5L312 597L245 586.5L171 597L147 586.5L126.5 565.5L122 540L98 526.5L29.5 540L0 544.5V476.5Z" fill="#BBBBBB"/>
</g>
<g id="-z20">
<g id="L_6">
<path id="side" d="M551 707L585 673L770 638L875 632L888 656L849.5 659.5L813 673H770L755.5 685.5L720.5 682.5L706 694.5L675.5 689L646 698L611.5 694.5L582 707L585 738L577 756L563 749.5L551 707Z" fill="#555555"/>
<path id="top" d="M245 723.5L213.5 686.5L295.5 668.5L345.5 682L394 674.5L438.5 664.5L490.5 638.5L535 615.5L594.5 609L642.5 594L681 600L715.5 594H767.5L793 606H824L842 622.5L879.5 630.5L875.5 643.5L827.5 650.5L781 643.5L763 660.5L709 671.5L594.5 674.5L561 716.5L579.5 747L561 768L496.5 789.5H452.5L417.5 782L348 801L272.5 793.5L248.5 768L245 723.5Z" fill="#919191"/>
</g>
<path id="R_6" d="M1031 622.5L1068.5 619.5L1101 630L1144.5 626L1195 616.5L1218 622.5L1239 643.5L1262.5 630L1295 633L1327 619.5L1340.5 637.5H1364.5L1411.5 645L1429 658H1455.5L1520 666L1539 653.5L1554.5 649L1573.5 622.5L1608.5 616L1641.5 594L1696 581.5L1728 586V785.5H1675H1639L1601.5 782L1554.5 768.5L1535.5 761L1508.5 764L1486 761L1459 764L1417 777.5L1374 785.5H1350L1327 782L1311 779.5L1295 770L1285.5 761L1282 747.5L1267 737H1237L1215 723L1195 714.5L1172.5 716.5L1148.5 707.5L1116 709.5L1087.5 697L1068.5 675L1053 670L1037 660.5L1023 648.5H998.5L984.5 643.5L1005 630L1016 619.5L1031 622.5Z" fill="#919191"/>
</g>
<g id="-z15">
<path id="L_7" d="M0 594L39 607.5L61 634H99.5L119.5 648.5L141.5 654.5L151.5 670.5L165 677H200L228.5 686.5H264L281 708.5L303.5 727L337 733L364 770.5L439 767L538.5 773L716.5 789.5L747 799L753 810.5L734 829.5L694.5 842.5L625 860L554.5 870L493 879.5L434.5 882L364 896L296 903.5L188 935L145.5 966L91 985L39.5 999L0 995V594Z" fill="#BBBBBB"/>
<path id="R_7" d="M746 731.5L724 727L735 719H748L760.5 706L799.5 703L845 698.5L889 687L970 672L1054 668.5L1189 680.5L1221.5 698.5H1272L1287 715.5L1313 727L1332 742.5L1362 755.5L1375.5 781L1346.5 805.5L1306.5 814.5L1267.5 835.5L1225 845L1189 871.5L1138.5 885.5L1100 905.5L1066 902L1045.5 893.5L1049.5 867.5L1036.5 861L1045.5 841L1038.5 825L1035 810L1021.5 795L1000.5 784L984 776L971.5 762L950.5 760.5L932 752H920.5L910 747.5L885 746L854.5 740.5L807 742.5L781 734.5L746 731.5Z" fill="#BBBBBB"/>
</g>
<g id="-z10">
<g id="L_8">
<path id="side_2" d="M769.5 817L800.5 812.5L817.5 817H839L855.5 824.5L832 841L800.5 845.5L780.5 861L734.5 877.5L674 914L613.5 932.5L582.5 954L547 965.5L531 985L472.5 1008.5L404.5 1047L344 1113.5L301 1100L414.5 957L769.5 817Z" fill="#9B9B9B"/>
<path id="top_2" d="M-20 951L56 947.5L151 918L225.5 882.5L323 847.5L607.5 810L684 812L748 801L782 810L804.5 821.5L782 837.5L757.5 843.5L736 857L714 860.5L697.5 879L670.5 888.5L621.5 904L605 922L560.5 933.5L525 970.5L483.5 989.5L475 1003.5L404 1038L344 1116.5L319 1280.5L-38 1285L-20 951Z" fill="#D9D9D9"/>
</g>
<g id="R_8">
<path id="side_3" d="M1191 980L1729 731V832L1663 853.5L1606.5 862.5L1522 878.5L1471 897L1427.5 907.5L1396.5 925.5L1375.5 930.5L1349 942.5L1334.5 955L1311 966L1294.5 974L1271.5 980L1254.5 988L1225.5 993L1191 980Z" fill="#A5A5A5"/>
<path id="top_3" d="M865.5 942L888.5 902.5L936 868L1141 830.5L1545 738.5H1729V801L1705.5 803.5L1667 818.5L1628 837.5L1588.5 843L1570 859H1547.5L1502 870L1470 875.5L1417.5 902.5L1351 925L1292 964.5L1223.5 994.5L1187.5 1003.5L1151 990L1100.5 994.5L1046 985H936L884 967.5L865.5 942Z" fill="#D9D9D9"/>
</g>
</g>
<g id="-z5">
<path id="R_9" d="M1596.5 922L1729 871.5V1123.5L1675.5 1115L1613 1078.5L1554.5 1071L1496.5 1051.5L1431 1029L1406.5 1010L1379 1006L1368 992.5L1379 975.5L1413 963.5L1522 931L1596.5 922Z" fill="#D9D9D9"/>
</g>
</g>
<defs>
<clipPath id="clip0_0_1">
<rect width="1728" height="1265" fill="white"/>
</clipPath>
</defs>
</svg>
