<svg width="265" height="386" viewBox="0 0 265 386" fill="none" xmlns="http://www.w3.org/2000/svg">
<g id="Person">
<g id="Person_2">
<g id="Head">
<path id="skull" d="M106.5 43L145 47L155.5 114L123.5 120L121.5 113.5L116.5 111L112 106L110 99L106.5 92.5L105.5 81L108 69.5L105.5 62L106.5 43Z" fill="#C0C0C0"/>
<path id="ear" d="M108.5 57.5L110.5 61.5L113.5 65.5V71L112 74L113 78.5L112.5 81.5L108 82.5L106 82L104.5 80.5L104 78V75L104.5 72.5L103.5 68L102 63.5L102.5 57L106 56L108.5 57.5Z" fill="#AAAAAA"/>
<path id="neck" d="M118.5 73.5L166 60L162.5 89.5V101.5L170.5 114L120.5 117L123 101.5L118.5 94V73.5Z" fill="#AAAAAA"/>
<path id="Hair" d="M121 2L129.5 0L138.5 1.5L142 4L146 6L150 9L153.5 8L158 9L165 9.5L169.5 14.5L170 17L172.5 18L176.5 18.5L179 22L178.5 24.5L181 26.5V29.5L183.5 32.5V37.5L182 39.5L181 44.5L175.5 52.5L173 58L172 66L170.5 70.5L169 80.5L166.5 79V83.5L164 83V90.5L160 88.5L159 90.5V95L150.5 88L144.5 91L141.5 88.5L136 89L127.5 87.5L124 88.5L122.5 85.5L120 89L118.5 84.5L116.5 83V77.5L114 78L114.5 69L111 66.5V63L107 63.5L108.5 60L106.5 57.5L104 55.5L100 60L98.5 57L96 60L90 54L87 55.5L88.5 50.5L83.5 49L87 44.5L84.5 42L91 34.5L87.5 32.5L95.5 27.5L97.5 21L101.5 16.5L109 10.5L112 7.5L121 2Z" fill="black"/>
</g>
<path id="Shin" d="M5 311L52 316.5L54.5 353L59.5 374H6V367.5C6 367.5 6 364 6 360.5C6 357 4 350 3.5 344.5C3 339 2.5 336.5 2.5 332C2.5 327.5 2.5 326 2.5 321.5C2.5 317 5 311 5 311Z" fill="#222222"/>
<path id="Thy" d="M95 297.5L235.163 318.723C245.506 320.29 252.895 329.562 252.113 339.994L250.715 358.636C250.573 360.525 250.825 362.422 251.456 364.208V364.208C254.153 371.852 249.645 380.15 241.765 382.047L233.359 384.071C230.811 384.684 228.168 384.791 225.579 384.385L205.896 381.297C204.635 381.1 203.358 381.023 202.082 381.068L177.736 381.938C176.581 381.979 175.431 382.121 174.3 382.361L162.654 384.831C160.565 385.274 158.418 385.38 156.295 385.144L141.5 383.5L107 379.5L83.9935 378.632C81.682 378.545 79.4032 378.057 77.2584 377.191L56.1248 368.656C55.0437 368.22 54.0028 367.689 53.0141 367.071L48.7789 364.424C47.2664 363.479 45.6343 362.74 43.9259 362.228L41.3297 361.449C38.1595 360.498 35.2749 358.775 32.9345 356.435L22.5 346L7.85621 328.102C3.14343 322.342 2.55398 314.243 6.38304 307.862V307.862C7.12488 306.625 8.01555 305.484 9.03512 304.465L14.6306 298.869C17.786 295.714 21.9059 293.705 26.335 293.161L45.3033 290.831C47.0929 290.611 48.904 290.635 50.6873 290.9L95 297.5Z" fill="#363535"/>
<g id="Body">
<path id="LeftArm" d="M66.5 288C63.8673 280.892 68.172 273.106 75.5918 271.555L91.8753 268.153C93.7555 267.76 95.6826 268.573 96.7138 270.193V270.193C97.7805 271.869 99.8001 272.675 101.728 272.193L113.393 269.277C115.422 268.769 117.554 268.851 119.538 269.513V269.513C126.797 271.932 129.427 280.841 124.648 286.815L123.193 288.634C121.447 290.816 119.027 292.357 116.311 293.016L87.5 300L80.0593 301.594C76.198 302.422 72.266 300.532 70.5 297V297L66.5 288V288Z" fill="#A19999"/>
<path id="Torso" d="M67.1963 153.453C64.6954 145.137 67.8459 136.158 74.9942 131.228L75.8324 130.65C76.9413 129.885 78.1246 129.235 79.3643 128.708L97.5 121L113.5 113.5L122.512 109.341C125.139 108.128 127.999 107.5 130.893 107.5H138.5L155.195 106.146C156.396 106.049 157.603 106.06 158.802 106.18L172 107.5H179H190.319C192.753 107.5 195.166 107.944 197.439 108.81L210.764 113.886C213.553 114.949 216.068 116.622 218.126 118.783L225 126L234.717 138.438C236.549 140.783 237.835 143.507 238.481 146.412L242.5 164.5L257 250L259.914 344.225C259.971 346.066 259.773 347.906 259.327 349.694L256.629 360.484C255.033 366.87 249.801 371.7 243.308 372.782V372.782C240.485 373.253 237.587 372.982 234.899 371.996L227.797 369.392C225.291 368.473 222.627 368.065 219.96 368.192L204.958 368.907C203.656 368.969 202.351 368.903 201.061 368.711L183.188 366.049C180.75 365.686 178.266 365.777 175.861 366.317L158.578 370.197C156.213 370.728 153.77 370.824 151.369 370.481L137.5 368.5L124.565 366.344C123.192 366.115 121.847 365.744 120.551 365.236L103.492 358.546C99.2882 356.897 95.7658 353.874 93.4983 349.969L89.6896 343.41C88.5711 341.484 87.7822 339.384 87.3556 337.197L84.73 323.741C84.2477 321.269 84.2365 318.729 84.6972 316.253L86.5856 306.102C87.4957 301.21 90.1965 296.834 94.1605 293.827L97.9369 290.962C100.919 288.699 103.206 285.646 104.539 282.148L108.156 272.653C109.678 268.657 109.88 264.277 108.73 260.158L105.236 247.638C104.748 245.887 104.5 244.079 104.5 242.262V238.806C104.5 234.088 102.832 229.522 99.7904 225.914L85.6694 209.166C83.9085 207.077 82.5941 204.65 81.8073 202.034L67.1963 153.453Z" fill="#4C4C4C"/>
<path id="LeftSleeve" d="M57.9672 149.112C59.6001 143.56 63.1906 138.788 68.073 135.681L69.4389 134.812C74.2546 131.747 80.1395 130.856 85.6464 132.358V132.358C90.6863 133.733 95.0005 137.001 97.6882 141.48L103.437 151.062C105.769 154.948 107 159.394 107 163.925V176.831C107 179.264 106.645 181.684 105.946 184.014L98.7877 207.874C98.2641 209.62 97.9329 211.417 97.8 213.234L96.737 227.761C96.5797 229.911 96.7012 232.073 97.0986 234.192L97.7368 237.596C97.9106 238.523 97.9049 239.475 97.7199 240.4L97.4081 241.96C97.1511 243.245 97.5118 244.576 98.3824 245.555L99.6321 246.961C100.4 247.825 100.362 249.138 99.5441 249.956L99.3738 250.126C98.6151 250.885 98.6151 252.115 99.3738 252.874V252.874C100.029 253.529 100.13 254.555 99.6165 255.325L99.5 255.5C98.9185 256.372 99.0335 257.534 99.7748 258.275L100.251 258.751C100.736 259.236 101.041 259.871 101.117 260.553L101.5 264V266.843C101.5 267.574 101.832 268.266 102.403 268.723V268.723C104.01 270.008 103.366 272.588 101.343 272.967L98.5 273.5L91.375 274.795C88.835 275.257 86.4576 276.369 84.4743 278.021V278.021C82.5236 279.647 80.1911 280.749 77.6967 281.224L72.1643 282.278C71.3937 282.425 70.6538 282.702 69.9762 283.097L67.7583 284.391C66.1608 285.323 64.1254 284.98 62.9218 283.575V283.575C62.327 282.881 62 281.998 62 281.084V279.914C62 279.009 61.6403 278.14 61 277.5V277.5C60.3597 276.86 60 275.991 60 275.086V273.091C60 272.371 59.8538 271.659 59.5703 270.997L58.9545 269.56C58.6691 268.894 58.7208 268.132 59.0936 267.511L59.2901 267.183C59.7073 266.488 59.5978 265.598 59.0244 265.024V265.024C58.4287 264.429 58.3363 263.495 58.8036 262.795L58.901 262.649C59.508 261.738 59.2619 260.508 58.3515 259.901L57.5048 259.337C56.3338 258.556 55.8632 257.066 56.3733 255.754L58.3771 250.602C58.7301 249.694 58.3339 248.667 57.4629 248.231V248.231C56.6235 247.812 56.2216 246.835 56.5184 245.945V245.945C56.7991 245.103 56.4584 244.175 55.6971 243.718L54.5928 243.056C53.1037 242.162 52.495 240.312 53.163 238.709L54.0089 236.679C54.3327 235.901 54.4906 235.065 54.4724 234.223L53.0836 169.875C53.0282 167.307 53.3689 164.746 54.0937 162.281L57.9672 149.112Z" fill="#474444"/>
</g>
</g>
<g id="Bp">
<g id="BackStraps">
<g id="LeftBackStrap">
<path id="LeftBackStrapBottom" d="M102.292 233.111C102.888 232.317 104.085 232.336 104.655 233.15L114 246.5L127.616 261.873C128.86 263.277 130.369 264.421 132.058 265.238L137.371 267.809C141.568 269.84 143.295 274.91 141.21 279.08V279.08C138.802 283.896 132.537 285.216 128.39 281.781L120.944 275.611C119.656 274.544 118.543 273.281 117.644 271.87L107.108 255.312C105.711 253.118 104.666 250.718 104.009 248.201L102.491 242.382C102.165 241.133 102 239.846 102 238.555V233.986C102 233.671 102.102 233.363 102.292 233.111V233.111Z" fill="#D9D9D9"/>
<path id="LeftBackStrap_2" d="M102.203 123C101.102 123 100.037 122.614 99.1921 121.91L98.4681 121.307C97.8547 120.796 97.5 120.038 97.5 119.24V119.24C97.5 118.181 98.121 117.221 99.0865 116.786L106.106 113.628C107.033 113.21 108.001 112.891 108.994 112.675L111.238 112.187C116.288 111.09 121.555 111.584 126.312 113.602L133.064 116.466C134.683 117.154 136.226 118.01 137.666 119.021L157.819 133.171C158.604 133.722 159.328 134.356 159.978 135.06L169.371 145.248C176.184 152.636 168.766 164.265 159.194 161.202V161.202C157.751 160.74 156.435 159.95 155.35 158.893L138 142L121.789 129.629C119.939 128.216 117.9 127.07 115.732 126.221L109.733 123.874C108.257 123.296 106.687 123 105.102 123H102.203Z" fill="#D9D9D9"/>
</g>
<path id="RightBackStrap" d="M185.816 111.08C185.343 108.715 186.624 106.35 188.863 105.455V105.455C189.61 105.156 190.418 105.042 191.218 105.122L196.219 105.622C198.672 105.867 200.978 106.908 202.784 108.585V108.585C205.433 111.045 206.745 114.623 206.315 118.212L205.747 122.939C205.583 124.31 205.556 125.693 205.668 127.069L206.818 141.252C206.937 142.721 207.469 144.126 208.353 145.305V145.305C212.172 150.396 208.621 157.671 202.259 157.793L199.521 157.846C194.924 157.934 190.966 154.617 190.249 150.075L190.124 149.285C190.041 148.762 190 148.234 190 147.705V134.475C190 132.829 189.837 131.187 189.515 129.573L185.816 111.08Z" fill="#D9D9D9"/>
</g>
<g id="BpBody">
<path id="BpTopFlapBack" d="M151.5 145.5L167 147.5L177 176.5L139 192L135 186.5V178L137 159.5L143 150.5L151.5 145.5Z" fill="#393939"/>
<path id="BpBody_2" d="M161.654 156.115C163.861 155.38 166.196 155.106 168.513 155.311L200.753 158.164C213.756 159.315 225.379 166.737 231.892 178.05L240.5 193L246.209 206.049C247.068 208.013 247.768 210.043 248.302 212.12L252 226.5L254.5 249L256.491 257.297C257.159 260.077 258.312 262.718 259.898 265.096V265.096C262.258 268.637 263.646 272.735 263.923 276.981L265 293.5L263.928 310.298C263.645 314.735 262.624 319.094 260.907 323.195L260.418 324.363C256.612 333.454 249.529 340.784 240.574 344.899V344.899C237.537 346.294 234.335 347.296 231.044 347.881L213.5 351L192.5 352L175.84 351.207C172.955 351.069 170.094 350.62 167.306 349.866L159.941 347.876C155.375 346.642 151.153 344.375 147.602 341.25V341.25C142.974 337.177 139.671 331.811 138.119 325.844L134.988 313.798C134.331 311.272 133.923 308.688 133.77 306.082L132.733 288.463C132.578 285.828 132.684 283.183 133.05 280.568L136 259.5L137.5 235L136.65 212.89C136.55 210.303 136.702 207.712 137.103 205.154L139.78 188.09C140.258 185.04 141.088 182.056 142.253 179.197L143.364 176.47C145.107 172.191 147.602 168.259 150.73 164.859L154.535 160.723C156.48 158.609 158.929 157.024 161.654 156.115V156.115Z" fill="black"/>
<path id="BpTopFlapFront" d="M179 201L167 156.5L161.5 149.5L155.5 147.5L154.5 145L162 147.5L221.5 154L225.5 152L231 154L245 176L252.5 200L244 211.5L196 214L179 201Z" fill="#6F5F5F"/>
<g id="BottomPocket">
<path id="BottomPocket_2" d="M189.833 321.234C190.276 319.42 190.462 317.553 190.386 315.688L189.525 294.367C189.003 281.438 200.71 271.423 213.402 273.942L237.894 278.803C247.256 280.661 254 288.876 254 298.421V317.338C254 319.433 253.671 321.515 253.024 323.508L250.362 331.718C248.841 336.407 245.643 340.369 241.38 342.844L235.833 346.065C233.631 347.343 231.206 348.189 228.686 348.558L215.144 350.54C213.061 350.845 210.943 350.819 208.868 350.463L199.03 348.777C196.083 348.271 193.364 346.864 191.25 344.75V344.75C187.68 341.18 186.23 336.005 187.427 331.1L189.833 321.234Z" fill="#818181"/>
<path id="BottomPocketFrontStrap" d="M221.52 309.143C221.225 307.073 222.541 305.115 224.57 304.608V304.608C226.932 304.017 229.282 305.613 229.604 308.026L230.831 317.229C230.943 318.074 230.968 318.929 230.905 319.779L230.159 329.857C230.053 331.28 229.772 332.685 229.32 334.039L228.632 336.104C228.544 336.367 228.418 336.614 228.258 336.839V336.839C227.151 338.388 224.849 338.388 223.742 336.839V336.839C223.582 336.614 223.456 336.367 223.368 336.104L222.863 334.588C222.293 332.88 222.074 331.075 222.218 329.281L222.876 321.049C222.958 320.019 222.926 318.984 222.78 317.962L221.52 309.143Z" fill="#252525"/>
<path id="BottomPocketFlap" d="M190.064 289.783C188.135 287.716 187.289 284.862 187.78 282.078V282.078C188.237 279.49 189.802 277.23 192.065 275.893L194.875 274.233C197.877 272.459 201.374 271.708 204.84 272.093L218.58 273.62C220.849 273.872 223.143 273.812 225.396 273.442L240.139 271.018C249.369 269.501 257.505 277.2 256.5 286.5V286.5V295.474C256.5 298.358 255.289 301.11 253.163 303.059V303.059C251.439 304.639 249.228 305.585 246.895 305.74L228 307L204.045 309.218C202.075 309.4 200.102 308.901 198.455 307.804V307.804C196.271 306.348 194.868 303.978 194.64 301.363L194.363 298.177C194.128 295.471 192.993 292.921 191.139 290.935L190.064 289.783Z" fill="#D9D9D9"/>
<g id="BottomPocketLeftStrap">
<path id="LeftStrap" d="M206 308.846C206 307.957 205.83 307.076 205.5 306.25V306.25C205.17 305.424 205 304.543 205 303.654V295.74C205 294.601 205.309 293.484 205.895 292.508L207.033 290.612C207.621 289.632 208.731 289.091 209.865 289.233V289.233C211.132 289.391 212.144 290.363 212.354 291.622L212.853 294.617C212.951 295.203 212.973 295.8 212.919 296.391L212 306.5V313.502C212 314.497 212.122 315.488 212.363 316.454V316.454C212.783 318.132 212.84 319.88 212.53 321.582L212 324.5L211.368 328.292C211.156 329.566 210.053 330.5 208.762 330.5V330.5C207.695 330.5 206.733 329.859 206.322 328.874L205.077 325.885C204.696 324.971 204.5 323.99 204.5 323V321.009C204.5 319.676 204.678 318.348 205.029 317.062L205.471 315.438C205.822 314.152 206 312.824 206 311.491V308.846Z" fill="#252525"/>
<path id="LeftStrapBuckle" d="M206 307.125C206 306.085 206.413 305.087 207.149 304.351L207.608 303.892C208.7 302.8 210.421 302.658 211.677 303.555V303.555C212.507 304.148 213 305.105 213 306.125V314.538C213 315.466 212.594 316.348 211.89 316.952V316.952C210.566 318.086 208.575 317.943 207.427 316.631L206.963 316.101C206.342 315.391 206 314.48 206 313.538V307.125Z" fill="#D9D9D9"/>
</g>
<g id="BottomPocketRightStrap">
<path id="RightStrap" d="M243.5 304.846C243.5 303.957 243.33 303.076 243 302.25V302.25C242.67 301.424 242.5 300.543 242.5 299.654V291.74C242.5 290.601 242.809 289.484 243.395 288.508L244.533 286.612C245.121 285.632 246.231 285.091 247.365 285.233V285.233C248.632 285.391 249.644 286.363 249.854 287.622L250.353 290.617C250.451 291.203 250.473 291.8 250.419 292.391L249.5 302.5V309.502C249.5 310.497 249.622 311.488 249.863 312.454V312.454C250.283 314.132 250.34 315.88 250.03 317.582L249.5 320.5L248.868 324.292C248.656 325.566 247.553 326.5 246.262 326.5V326.5C245.195 326.5 244.233 325.859 243.822 324.874L242.577 321.885C242.196 320.971 242 319.99 242 319V317.009C242 315.676 242.178 314.348 242.529 313.062L242.971 311.438C243.322 310.152 243.5 308.824 243.5 307.491V304.846Z" fill="#252525"/>
<path id="RightStrapBuckle" d="M243.5 303.125C243.5 302.085 243.913 301.087 244.649 300.351L245.108 299.892C246.2 298.8 247.921 298.658 249.177 299.555V299.555C250.007 300.148 250.5 301.105 250.5 302.125V310.538C250.5 311.466 250.094 312.348 249.39 312.952V312.952C248.066 314.086 246.075 313.943 244.927 312.631L244.463 312.101C243.842 311.391 243.5 310.48 243.5 309.538V303.125Z" fill="#D9D9D9"/>
</g>
</g>
<g id="BpStrap">
<path id="Strap" d="M188.29 188.103C188.1 187.38 188.1 186.62 188.29 185.897V185.897C189.2 182.442 193.666 181.511 195.881 184.315L197.449 186.302C197.814 186.764 198.104 187.282 198.307 187.835L201.5 196.5L204.5 208.5L207.769 227.705C208.24 230.473 207.688 233.319 206.216 235.711V235.711C205.094 237.534 204.5 239.634 204.5 241.775V247.5L203.5 259.5V270V280.276C203.5 280.755 203.411 281.229 203.238 281.674V281.674C202.012 284.826 197.613 284.988 196.159 281.935L195.444 280.433C195.152 279.819 195 279.147 195 278.466V267.5V257V249.012C195 246.035 195.605 243.089 196.777 240.353V240.353C197.588 238.46 198.13 236.463 198.385 234.42L198.458 233.833C198.817 230.964 198.698 228.056 198.105 225.226L194.5 208L190.5 196.5L188.29 188.103Z" fill="#535353"/>
<path id="StrapKnuckle" d="M198.298 228.542C198.752 227.192 199.659 226.041 200.865 225.283L201.321 224.996C203.232 223.796 205.688 223.912 207.477 225.286V225.286C208.462 226.042 209.156 227.114 209.442 228.322L209.496 228.55C209.822 229.924 209.656 231.37 209.028 232.635L208.666 233.364C208.23 234.243 208.041 235.224 208.118 236.202L208.213 237.407C208.376 239.476 206.959 241.336 204.921 241.727V241.727C204.002 241.904 203.05 241.758 202.226 241.315L201.324 240.831C199.532 239.868 198.251 238.168 197.82 236.18L197.561 234.99C197.194 233.298 197.291 231.537 197.843 229.896L198.298 228.542Z" fill="#D9D9D9"/>
</g>
<g id="BpStrap_2">
<path id="Strap_2" d="M227.499 189.554C227.143 188.23 227.288 186.821 227.907 185.597L228.211 184.995C229.946 181.563 234.692 181.171 236.966 184.272V184.272C237.319 184.754 237.586 185.293 237.755 185.866L240 193.5L244 205.5L251.382 224.879C251.793 225.958 252.116 227.068 252.348 228.199L252.726 230.044C253.325 232.967 253.048 236.001 251.929 238.767V238.767C251.199 240.572 250.823 242.501 250.823 244.448L250.823 248.824C250.823 250.889 251.036 252.948 251.459 254.969L252.974 262.207L255.079 272.266C255.177 272.734 255.187 273.216 255.108 273.688V273.688C254.554 277.024 250.282 278.083 248.234 275.392L247.226 274.069C246.814 273.528 246.528 272.901 246.388 272.235L244.142 261.501L241.991 251.224L241.176 243.142C241 241.397 241.086 239.635 241.432 237.916V237.916C242.073 234.73 241.818 231.429 240.693 228.38L240 226.5L235.705 211.038C235.236 209.349 234.62 207.705 233.863 206.124L230.323 198.721C229.776 197.576 229.334 196.383 229.005 195.157L227.499 189.554Z" fill="#535353"/>
<path id="StrapKnuckle_2" d="M243.225 227.252C243.456 226.809 243.733 226.393 244.053 226.01L245.07 224.791C246.219 223.416 248.073 222.85 249.794 223.351V223.351C250.813 223.647 251.697 224.296 252.287 225.18V225.18C252.908 226.11 253.165 227.24 253.005 228.347L252.912 228.986C252.803 229.737 252.912 230.504 253.225 231.195V231.195C254.1 233.124 253.307 235.4 251.422 236.367L249.021 237.599C247.85 238.2 246.47 238.237 245.269 237.698V237.698C244.32 237.273 243.555 236.521 243.115 235.579L242.646 234.576C241.681 232.513 241.732 230.12 242.784 228.1L243.225 227.252Z" fill="#D9D9D9"/>
</g>
</g>
</g>
</g>
</svg>
