<svg xmlns="http://www.w3.org/2000/svg" width="1728" height="534" fill="none">
  <g id="-z10">
    <g id="L">
      <path id="side" fill="#9B9B9B" d="m770 86 31-4 17 4h21l17 8-24 16-31 5-20 15-46 17-61 36-60 19-31 21-36 12-16 19-58 24-68 38-61 67-43-14 114-143L770 86Z"/>
      <path id="top" fill="#D9D9D9" d="m-20 220 76-3 95-30 75-35 97-35 285-38 76 2 64-11 34 9 23 12-23 16-24 6-22 13-22 4-16 18-27 10-49 15-17 18-44 12-36 37-41 19-9 14-71 34-60 79-25 164-357 4 18-334Z"/>
    </g>
    <g id="R">
      <path id="side_2" fill="#A5A5A5" d="M1191 249 1729 0v101l-66 22-56 9-85 16-51 18-43 11-31 18-21 5-27 12-14 12-24 11-16 8-23 6-17 8-29 5-35-13Z"/>
      <path id="top_2" fill="#D9D9D9" d="m866 211 23-39 47-35 205-37 404-92h184v62l-23 3-39 15-39 19-39 5-19 16h-22l-46 11-32 6-52 27-67 22-59 40-68 30-36 9-37-14-50 5-55-10H936l-52-17-18-26Z"/>
    </g>
  </g>
</svg>
