<svg xmlns="http://www.w3.org/2000/svg" width="1376" height="405" fill="none">
  <g id="-z15" fill="#BBB">
    <path id="L" d="m0 0 39 14 22 26h39l20 15 22 6 10 16 13 6h35l29 10h35l17 22 23 18 33 6 27 38 75-4 100 6 178 17 30 9 6 12-19 19-39 13-70 17-70 10-62 10-58 2-71 14-68 8-108 31-42 31-55 19-51 14-40-4V0Z"/>
    <path id="R" d="m746 138-22-5 11-8h13l13-13 39-3 45-4 44-12 81-15 84-3 135 12 33 18h50l15 17 26 11 19 16 30 13 14 25-29 25-40 9-39 21-43 9-36 27-50 14-39 20-34-4-20-8 4-26-13-7 9-20-7-16-4-15-13-15-21-11-17-8-12-14-21-1-19-9h-11l-11-4-25-2-30-5-48 2-26-8-35-3Z"/>
  </g>
</svg>
