<svg xmlns="http://www.w3.org/2000/svg" width="1515" height="220" fill="none">
  <g id="-z20">
    <g id="L">
      <path id="side" fill="#555" d="m338 126 34-34 185-35 105-6 13 24-38 4-37 13h-43l-14 13-35-3-15 12-30-6-30 9-34-3-30 12 3 31-8 18-14-6-12-43Z"/>
      <path id="top" fill="#919191" d="M32 143 1 106l82-18 50 13 48-7 45-10 52-26 44-23 60-7 48-15 38 6 35-6h52l25 12h31l18 17 38 8-4 13-48 7-47-7-18 17-54 11-114 3-34 42 19 30-19 21-64 22h-44l-35-8-70 19-75-7-24-26-4-44Z"/>
    </g>
    <path id="R" fill="#919191" d="m818 42 38-3 32 10 44-4 50-9 23 6 21 21 24-14 32 3 32-13 14 18h24l47 7 17 13h27l64 8 19-12 16-5 19-26 35-7 33-22 54-12 32 4v200h-89l-37-4-47-13-19-8-27 3-23-3-27 3-42 14-43 8h-24l-23-4-16-2-16-10-9-9-4-13-15-11h-30l-22-14-20-8-22 2-24-9-33 2-28-13-19-22-16-5-16-9-14-12h-24l-14-5 20-14 11-10 15 3Z"/>
  </g>
</svg>
