<svg xmlns="http://www.w3.org/2000/svg" width="1727" height="205" fill="none">
  <g id="-z25" fill="#BBB">
    <path id="R" d="m1402 100 48-10 25-9 36 9 52-13 54 5 43-26 12-18 32-15h23v164l-296-7-63-17-80-12-42 12h-35l-15 6-29 4-31-4-42 11h-45l-23-7 8-14 28-6 12-9-12-3h-17l-19-8-8 6-22-9-25-2-12-7-17 1-5-6 4-16 30-4 14-11 28-4 18-6 18 2 20-7 5 20 20 10h26l16-10 24 10 14 8h48l36 8 27 12h55l45-12 17-16Z"/>
    <path id="L" d="m0 47 36 7 36 8h30l33-15 36 7 46-7 39-34 16-13h20l10 13 37 12 30 29 20 21 25 11h28l36-11 35 11 13 18 25 6h39l19 20 11 28 48-7h100l61 2 14 9v10l-35-5-40 8h-22l-19 9-44 7-39 14H544l-53-14-62-11-117-13-67-10-74 10-24-10-20-21-5-26-24-13-68 13-30 5V47Z"/>
  </g>
</svg>
