<svg xmlns="http://www.w3.org/2000/svg" width="1728" height="205" fill="none">
  <g id="-z35" fill="#858585">
    <path id="L" d="m0 47 36 7 36 9h30l33-16 36 7 46-7 39-33 16-13h20l10 13 37 11 30 29 20 21 25 12h28l36-12 35 12 13 18 25 6h39l19 20 11 28 48-8h100l61 3 14 8v11l-35-5-40 8h-22l-19 9-44 6-39 14H544l-53-14-62-11-117-12-67-11-74 11-24-11-20-21-5-25-24-14-68 14-30 4V47Z"/>
    <path id="R" d="m1598 86 40-15 38-35 52-19v167l-330-6-64-6-38-26-55 17-51 9-50-5-49 14-44-3-25-11 50-21-47-16-3 11-42-15h-37l-9-13 16-15h21l17-13h23l21-11 34-3 14 23 19 4h22l15-8 26 17h25l18-3h16l31 9 39 17 110-32 69-20 52 8 40-8 36 8Z"/>
  </g>
</svg>
