<svg xmlns="http://www.w3.org/2000/svg" width="1728" height="409" fill="none">
  <g id="-z45" fill="#D0D0D0">
    <path id="L" d="m0 96 28-3 23-21 23-6 23 10h20l16 11 16 21 43-5 30 9 16-4 24 15 23 6h23l19 11 25-6 41 20 55-5 26 11h37l24 11 30 37h35l18 6 23-12 27 6 17-6 19 25 33 13 3 19-25 17-150 15L0 314V96Z"/>
    <path id="R" d="m1269 162 22-21 33 2 36-24 55-4 65-32 12 18h19l21-10 37 12 10-34 11-5 20 5 37-23 14-19 19-11 9-10 16-5 15 12 8 27v369l-262-14-165-101-225-14-191-9v-12l-6-7 6-10 8-15 9-10 37-4 7-5 15 1 6-12 17-4 20 4h17l10-15 16-5 13 10 13-2 28-24h13l18 12 14 7 14-3 15 6 30-36 28 7 12-7 14 7 10 8Z"/>
  </g>
</svg>
