<svg width="1080" height="1080" viewBox="0 0 1080 1080" fill="none" xmlns="http://www.w3.org/2000/svg">
<g clip-path="url(#clip0_66_39)">
<path d="M881.249 154.288C890.398 143.947 889.467 128.097 878.714 119.437C778.677 38.8636 652.919 -3.58912 523.98 0.237673C395.042 4.06447 272.023 53.9007 176.941 140.265C166.72 149.548 166.73 165.425 176.476 175.205L369.885 369.29C379.631 379.07 395.381 378.965 406.221 370.414C442.435 341.845 487.049 325.476 533.592 324.095C580.135 322.714 625.641 336.408 663.486 362.778C674.814 370.672 690.543 369.843 699.691 359.502L881.249 154.288Z" fill="#788300"/>
<path d="M925.712 881.249C936.053 890.398 951.902 889.467 960.563 878.714C1041.14 778.677 1083.59 652.919 1079.76 523.98C1075.94 395.042 1026.1 272.023 939.735 176.941C930.452 166.72 914.575 166.73 904.795 176.476L710.709 369.885C700.929 379.631 701.034 395.381 709.586 406.221C738.154 442.435 754.523 487.049 755.904 533.592C757.286 580.135 743.592 625.641 717.221 663.486C709.328 674.814 710.157 690.543 720.498 699.691L925.712 881.249Z" fill="#788300"/>
<path d="M198.75 925.712C189.601 936.053 190.533 951.903 201.286 960.563C301.323 1041.14 427.081 1083.59 556.019 1079.76C684.958 1075.94 807.977 1026.1 903.059 939.735C913.279 930.452 913.269 914.575 903.523 904.795L710.115 710.71C700.369 700.93 684.618 701.035 673.778 709.586C637.564 738.155 592.95 754.524 546.407 755.905C499.865 757.286 454.358 743.592 416.514 717.222C405.186 709.328 389.457 710.157 380.308 720.498L198.75 925.712Z" fill="#788300"/>
<path d="M154.288 198.75C143.947 189.602 128.097 190.533 119.437 201.286C38.8637 301.323 -3.58904 427.081 0.237742 556.02C4.06452 684.958 53.9007 807.977 140.265 903.059C149.548 913.28 165.425 913.27 175.205 903.524L369.29 710.115C379.07 700.369 378.965 684.619 370.414 673.779C341.845 637.565 325.476 592.95 324.095 546.408C322.714 499.865 336.408 454.359 362.778 416.514C370.672 405.186 369.843 389.457 359.502 380.308L154.288 198.75Z" fill="#788300"/>
</g>
<defs>
<clipPath id="clip0_66_39">
<rect width="1080" height="1080" fill="white"/>
</clipPath>
</defs>
</svg>
