<svg xmlns="http://www.w3.org/2000/svg" width="1080" height="1080" fill="none" viewBox="0 0 1080 1080">
  <circle cx="540" cy="540" r="139.4" fill="#5F2DB2" transform="rotate(-50 540 540)"/>
  <path fill="#0F6571" d="M426 550c-13 1-24 13-20 27a139 139 0 0 0 104 99c13 3 25-8 26-22l2-54c0-14-12-25-22-35-10-9-22-21-36-20l-54 5Z"/>
  <path fill="#710F6D" d="M654 530c13-1 24-13 20-27a139 139 0 0 0-104-99c-13-3-25 8-26 22l-2 54c0 14 12 25 22 35 10 9 22 21 36 20l54-5Z"/>
  <path fill="#280F71" d="M530 426c-1-13-13-24-27-20a139 139 0 0 0-99 104c-3 13 8 25 22 26l54 2c14 0 25-12 35-22 9-10 21-22 20-36l-5-54Z"/>
  <path fill="#22710F" d="M550 654c1 13 13 24 27 20a139 139 0 0 0 99-104c3-13-8-25-22-26l-54-2c-14 0-25 12-35 22-9 10-21 22-20 36l5 54Z"/>
  <path stroke="#fff" stroke-linecap="round" stroke-width="14" d="M673 540H407m133-133v266"/>
</svg>
