<svg width="1080" height="1080" viewBox="0 0 1080 1080" fill="none" xmlns="http://www.w3.org/2000/svg">
<g id="NavCollapsed">
<circle id="bg" cx="540" cy="540" r="139.42" transform="rotate(-50 540 540)" fill="#5F2DB2"/>
<path id="bottomLeft" d="M426.312 549.946C412.557 551.15 402.163 563.384 405.806 576.702C412.447 600.985 425.602 623.173 444.059 640.749C462.515 658.324 485.319 670.38 509.897 675.827C523.377 678.815 535.089 667.835 535.619 654.038L537.705 599.737C538.235 585.94 526.013 574.709 516.015 565.187V565.187V565.187C506.016 555.666 494.202 544.007 480.447 545.21L426.312 549.946Z" fill="#0F6571"/>
<path id="topRight" d="M653.688 530.054C667.443 528.85 677.837 516.616 674.194 503.298C667.553 479.015 654.398 456.827 635.942 439.252C617.485 421.676 594.681 409.62 570.103 404.173C556.623 401.185 544.911 412.165 544.381 425.962L542.295 480.264C541.765 494.06 553.987 505.291 563.985 514.813V514.813V514.813C573.984 524.335 585.799 535.993 599.553 534.79L653.688 530.054Z" fill="#710F6D"/>
<path id="topLeft" d="M530.054 426.312C528.85 412.557 516.616 402.163 503.298 405.806C479.015 412.447 456.827 425.602 439.252 444.059C421.676 462.515 409.62 485.319 404.173 509.897C401.185 523.377 412.165 535.089 425.962 535.619L480.264 537.705C494.06 538.235 505.291 526.013 514.813 516.015V516.015V516.015C524.335 506.016 535.993 494.202 534.79 480.447L530.054 426.312Z" fill="#280F71"/>
<path id="bottomRight" d="M549.946 653.688C551.15 667.443 563.384 677.837 576.702 674.194C600.985 667.553 623.173 654.398 640.749 635.942C658.324 617.485 670.38 594.681 675.827 570.103C678.815 556.623 667.835 544.911 654.038 544.381L599.737 542.295C585.94 541.765 574.709 553.987 565.187 563.985V563.985V563.985C555.666 573.984 544.007 585.799 545.21 599.553L549.946 653.688Z" fill="#22710F"/>
<g id="X">
<path id="Line 1" d="M673 540H407" stroke="white" stroke-width="14" stroke-linecap="round"/>
<path id="Line 2" d="M540 407V673" stroke="white" stroke-width="14" stroke-linecap="round"/>
</g>
</g>
</svg>
