<svg xmlns="http://www.w3.org/2000/svg" width="1080" height="1080" fill="none" viewBox="0 0 1080 1080">
  <g clip-path="url(#a)">
    <circle cx="540" cy="540" r="540" fill="#5F2DB2" transform="rotate(-5 540 540)"/>
    <path fill="#0F6571" d="M145 209c-10-9-26-8-34 3a540 540 0 0 0 16 676c9 11 25 11 35 2l261-241c10-10 10-25 3-37a135 135 0 0 1-4-138c7-12 6-28-5-37L145 209Z"/>
    <path fill="#710F6D" d="M935 871c10 9 26 8 34-3a540 540 0 0 0-16-676c-9-11-25-11-35-2L657 431c-10 10-10 25-3 37a135 135 0 0 1 4 138c-7 12-6 28 5 37l272 228Z"/>
    <path fill="#280F71" d="M871 145c9-10 8-26-3-34a540 540 0 0 0-676 16c-11 9-11 25-2 35l241 261c10 10 25 10 37 3a135 135 0 0 1 138-4c12 7 28 6 37-5l228-272Z"/>
    <path fill="#22710F" d="M209 935c-9 10-8 26 3 34a540 540 0 0 0 676-16c11-9 11-25 2-35L649 657c-10-10-25-10-37-3a135 135 0 0 1-138 4c-12-7-28-6-37 5L209 935Z"/>
    <path stroke="#fff" stroke-linecap="round" stroke-width="14" d="M601 601 479 479m122 0L479 601"/>
  </g>
  <defs>
    <clipPath id="a">
      <path fill="#fff" d="M0 0h1080v1080H0z"/>
    </clipPath>
  </defs>
</svg>
