<svg width="1080" height="1080" viewBox="0 0 1080 1080" fill="none" xmlns="http://www.w3.org/2000/svg">
<g id="NavExpanded" clip-path="url(#clip0_78_28)">
<circle id="bg" cx="540" cy="540" r="540" transform="rotate(-5 540 540)" fill="#5F2DB2"/>
<path id="bottomLeft" d="M145.487 208.964C134.91 200.089 119.091 201.435 110.714 212.411C36.3079 309.911 -2.84753 430.086 0.161157 553.193C3.16984 676.301 48.149 794.419 127.23 888.168C136.132 898.722 151.998 899.293 162.129 889.912L422.603 648.711C432.734 639.329 433.105 623.602 425.75 611.917C412.871 591.457 405.638 567.772 405.04 543.298C404.442 518.825 410.51 494.814 422.374 473.75C429.149 461.719 428.01 446.029 417.433 437.154L145.487 208.964Z" fill="#0F6571"/>
<path id="topRight" d="M934.513 871.036C945.09 879.911 960.909 878.565 969.286 867.589C1043.69 770.089 1082.85 649.914 1079.84 526.807C1076.83 403.699 1031.85 285.581 952.77 191.832C943.868 181.278 928.002 180.707 917.871 190.088L657.397 431.289C647.266 440.671 646.894 456.398 654.25 468.083C667.128 488.543 674.362 512.228 674.96 536.702C675.558 561.175 669.49 585.186 657.626 606.25C650.851 618.281 651.99 633.971 662.567 642.846L934.513 871.036Z" fill="#710F6D"/>
<path id="topLeft" d="M871.036 145.487C879.911 134.91 878.565 119.091 867.589 110.715C770.089 36.308 649.914 -2.8475 526.807 0.161187C403.699 3.16987 285.581 48.1491 191.832 127.23C181.278 136.132 180.706 151.999 190.088 162.129L431.289 422.603C440.67 432.734 456.398 433.106 468.083 425.75C488.543 412.872 512.228 405.638 536.702 405.04C561.175 404.442 585.186 410.51 606.25 422.374C618.281 429.149 633.971 428.01 642.846 417.433L871.036 145.487Z" fill="#280F71"/>
<path id="bottomRight" d="M208.964 934.513C200.089 945.09 201.435 960.909 212.411 969.286C309.911 1043.69 430.086 1082.85 553.193 1079.84C676.301 1076.83 794.419 1031.85 888.168 952.77C898.722 943.868 899.293 928.002 889.912 917.871L648.711 657.397C639.329 647.266 623.602 646.894 611.917 654.25C591.457 667.129 567.772 674.362 543.298 674.96C518.824 675.558 494.814 669.49 473.75 657.626C461.719 650.851 446.029 651.99 437.154 662.567L208.964 934.513Z" fill="#22710F"/>
<g id="X">
<path id="Line 1" d="M601 601L479 479" stroke="white" stroke-width="14" stroke-linecap="round"/>
<path id="Line 2" d="M601 479L479 601" stroke="white" stroke-width="14" stroke-linecap="round"/>
</g>
</g>
<defs>
<clipPath id="clip0_78_28">
<rect width="1080" height="1080" fill="white"/>
</clipPath>
</defs>
</svg>
