<svg width="2290" height="1117" viewBox="0 0 2290 1117" fill="none" xmlns="http://www.w3.org/2000/svg">
<g id="MacBook Pro 16&#34; - 2" clip-path="url(#clip0_1_46)">
<rect width="2290" height="1117" fill="white"/>
<g id="z40">
<g id="left">
<path id="Polygon 1" d="M-5 204L2290 558H-5V204Z" fill="#A0A0A0"/>
</g>
<g id="right">
<path id="Polygon 2" d="M2290 204L3.68598e-05 558H2290V204Z" fill="#B9B9B9"/>
</g>
</g>
<rect id="water" y="497" width="2290" height="620" fill="#828FC0"/>
<g id="z35">
<g id="left_2">
<path id="Polygon 1_2" d="M491.175 227L967.35 581.075H0L491.175 227Z" fill="#D9D9D9"/>
</g>
<g id="right_2">
<path id="Polygon 2_2" d="M1759.35 227L2235.53 581.075H1268.18L1759.35 227Z" fill="#D9D9D9"/>
</g>
</g>
<g id="z30">
<g id="left_3">
<path id="Polygon 3" d="M290.803 318L596.339 615.599H-14.7334L290.803 318Z" fill="#8F8F8F"/>
<path id="Polygon 4" d="M792.197 318L1097.73 615.599H486.661L792.197 318Z" fill="#B2B2B2"/>
</g>
<g id="right_3">
<path id="Polygon 3_2" d="M1997.2 318L1691.66 615.599H2302.73L1997.2 318Z" fill="#8F8F8F"/>
<path id="Polygon 4_2" d="M1495.8 318L1190.27 615.599H1801.34L1495.8 318Z" fill="#B2B2B2"/>
</g>
</g>
<g id="z25">
<g id="left_4">
<path id="Polygon 1_3" d="M-5 381L1118 735H-5V381Z" fill="#A0A0A0"/>
</g>
<g id="right_4">
<path id="Polygon 2_3" d="M2290 381L1227 735H2290V381Z" fill="#B9B9B9"/>
</g>
</g>
<g id="z20">
<g id="left_5">
<path id="Polygon 1_4" d="M282.175 445L758.35 799.075H-209L282.175 445Z" fill="#D9D9D9"/>
</g>
<g id="right_5">
<path id="Polygon 2_4" d="M2065.18 445L2541.35 799.075H1574L2065.18 445Z" fill="#D9D9D9"/>
</g>
</g>
<g id="z15">
<g id="left_6">
<path id="Polygon 3_3" d="M112.803 601L418.339 898.599H-192.733L112.803 601Z" fill="#8F8F8F"/>
<path id="Polygon 4_3" d="M614.197 601L919.733 898.599H308.661L614.197 601Z" fill="#B2B2B2"/>
</g>
<g id="right_6">
<path id="Polygon 3_4" d="M2181.2 601L1875.66 898.599H2486.73L2181.2 601Z" fill="#8F8F8F"/>
<path id="Polygon 4_4" d="M1679.8 601L1374.27 898.599H1985.34L1679.8 601Z" fill="#B2B2B2"/>
</g>
</g>
<g id="z10">
<g id="left_7">



<path id="Polygon 1_5" d="M255.175 673L731.35 1027.07H-236L255.175 673Z" fill="#D9D9D9"/>
</g>
<g id="right_7">
<path id="Polygon 2_5" d="M2054.18 673L2530.35 1027.07H1563L2054.18 673Z" fill="#D9D9D9"/>
</g>
</g>
<g id="z5">
<g id="left_8">



<path id="Polygon 3_5" d="M180.958 829L471.04 1126.6H-109.124L180.958 829Z" fill="#8F8F8F"/>
</g>
<g id="right_8">
<path id="Polygon 3_6" d="M2137.99 829L1847.91 1126.6H2428.07L2137.99 829Z" fill="#8F8F8F"/>
</g>
</g>
</g>
<defs>
<clipPath id="clip0_1_46">
<rect width="2290" height="1117" fill="white"/>
</clipPath>
</defs>
</svg>
